<svg width="128" height="32" version="1.1" viewBox="0 0 33.866 8.4667" xmlns="http://www.w3.org/2000/svg"><g stroke-width=".11583"><path d="m15.974 4.5419q0-0.26494-0.12932-0.4076-0.12638-0.14557-0.3615-0.14557-0.23218 0-0.35856 0.13975-0.12344 0.13684-0.12344 0.39013l-0.14989-0.69875q0.14401-0.28823 0.37326-0.44254 0.23218-0.15722 0.51433-0.15722 0.32917 0 0.56136 0.15431 0.23512 0.15431 0.35562 0.45128 0.12344 0.29697 0.12344 0.71331v1.7469h-0.8053zm-3.5562-1.2781h0.8053v3.0221h-0.8053zm1.7781 1.2781q0-0.26494-0.13226-0.4076-0.13226-0.14557-0.37326-0.14557-0.22337 0-0.34681 0.12519-0.1205 0.12228-0.1205 0.34646l-0.06172-0.66963q0.1352-0.2795 0.33799-0.42507t0.47612-0.14557q0.32329 0 0.55254 0.15431 0.23218 0.15431 0.35269 0.45128 0.1205 0.29697 0.1205 0.71331v1.7469h-0.8053z"/><path d="m18.886 6.3296q-0.44086 0-0.75533-0.15722-0.31154-0.16013-0.47612-0.46292-0.16459-0.3057-0.16459-0.73369v-0.34064q0-0.44836 0.15577-0.76571 0.15871-0.31735 0.45849-0.4833 0.30272-0.16595 0.72888-0.16595 0.39971 0 0.6848 0.19798t0.43204 0.57647q0.14989 0.37558 0.14989 0.90837v0.19798h-2.0867v-0.53862h1.352l-0.0088-0.069875q-0.032346-0.26203-0.16754-0.40469-0.13226-0.14266-0.35562-0.14266-0.29096 0-0.45261 0.17178-0.15871 0.17178-0.15871 0.48621v0.38431q0 0.30861 0.1734 0.47748 0.17634 0.16886 0.49082 0.16886 0.16165 0 0.32036-0.055318 0.15871-0.058229 0.28803-0.16304l0.52609 0.46292q-0.23806 0.21545-0.53491 0.33482-0.29684 0.11646-0.59956 0.11646z"/><path d="m22.904 4.3847v0.76862h-2.0926v-0.76862z"/><path d="m24.87 6.3296q-0.27333 0-0.53197-0.046583-0.25864-0.049495-0.48494-0.14266-0.22631-0.093166-0.39971-0.22418l0.4967-0.61432q0.22043 0.13975 0.46143 0.21545 0.241 0.075698 0.45849 0.075698 0.28215 0 0.43792-0.061141 0.15577-0.064052 0.15577-0.17469 0-0.1019-0.0676-0.15431-0.0676-0.052406-0.1734-0.072786-0.10581-0.023292-0.29684-0.04076-0.0529-0.00582-0.10874-0.011646-0.0529-0.00582-0.10874-0.011646-0.01176-0.00292-0.02645-0.00292-0.01176-0.00292-0.02351-0.00292-0.34093-0.043664-0.54666-0.10772t-0.34975-0.24456q-0.14107-0.18342-0.14107-0.52988 0-0.30279 0.14695-0.51824t0.42616-0.32608q0.27921-0.11355 0.67598-0.11355 0.23218 0 0.46143 0.046583 0.23218 0.046584 0.4438 0.13393 0.21161 0.087343 0.39089 0.20962l-0.47906 0.57938q-0.19985-0.11063-0.41734-0.17177-0.21749-0.061141-0.41734-0.061141-0.24394 0-0.37914 0.055318t-0.1352 0.15431q0 0.075698 0.07054 0.11937 0.07348 0.04076 0.17928 0.061141 0.10874 0.017468 0.31448 0.04076 0.02645 0.00292 0.0529 0.00582 0.02645 0.00292 0.0529 0.00582 0.01175 0.00292 0.02645 0.00292t0.02645 0.00292q0.35562 0.04076 0.57899 0.10481 0.22337 0.064052 0.37914 0.25621 0.15871 0.19216 0.15871 0.56482 0 0.31444-0.15283 0.53862t-0.44673 0.34355q-0.2939 0.11646-0.70831 0.11646z"/><path d="m26.831 2.0526h0.8053v4.2333h-0.8053zm1.7634 2.4019q0-0.22127-0.12932-0.34355-0.12638-0.12228-0.3615-0.12228-0.22337 0-0.34681 0.12519-0.1205 0.12228-0.1205 0.34646l-0.06172-0.66963q0.13813-0.28532 0.32917-0.42798 0.19398-0.14266 0.48494-0.14266 0.482 0 0.74652 0.32317 0.26451 0.32026 0.26451 0.90837v1.8342h-0.8053z"/><path d="m30.149 2.0526h0.8053v0.79774h-0.8053zm0 1.2112h0.8053v3.0221h-0.8053z"/></g><path d="m7.7245 1.4237-5.5328 1.3146 0.085781 0.35914-0.14262 0.23667 2.6189 1.572 5.617-1.5311-0.12402-0.45163 0.0832-0.16174zm-0.072345 0.59583 1.6748 0.86144-4.4616 1.2164-1.6893-1.0134zm2.5197 2.1213-5.3066 1.4469-2.344-1.4082-0.38652 0.64438 2.6189 1.5725 5.617-1.5332zm0 1.4882-5.3066 1.4469-2.344-1.4061-0.38652 0.64231 2.6189 1.5725 5.617-1.5311z" color="#000000" color-rendering="auto" dominant-baseline="auto" image-rendering="auto" shape-rendering="auto" solid-color="#000000" stop-color="#000000" stroke-width=".26458"/></svg>
