<?xml version="1.0" encoding="UTF-8" standalone="no"?>
<svg
   xmlns:dc="http://purl.org/dc/elements/1.1/"
   xmlns:cc="http://creativecommons.org/ns#"
   xmlns:rdf="http://www.w3.org/1999/02/22-rdf-syntax-ns#"
   xmlns:svg="http://www.w3.org/2000/svg"
   xmlns="http://www.w3.org/2000/svg"
   xmlns:xlink="http://www.w3.org/1999/xlink"
   xmlns:sodipodi="http://sodipodi.sourceforge.net/DTD/sodipodi-0.dtd"
   xmlns:inkscape="http://www.inkscape.org/namespaces/inkscape"
   sodipodi:docname="wataseru.svg"
   inkscape:version="1.0 (4035a4fb49, 2020-05-01)"
   id="svg943"
   version="1.1"
   viewBox="0 0 210 297"
   height="297mm"
   width="210mm">
  <defs
     id="defs937">
    <linearGradient
       id="linearGradient1651"
       inkscape:collect="always">
      <stop
         id="stop1647"
         offset="0"
         style="stop-color:#681e99;stop-opacity:1" />
      <stop
         id="stop1649"
         offset="1"
         style="stop-color:#1b4fc2;stop-opacity:1" />
    </linearGradient>
    <linearGradient
       gradientTransform="translate(-0.53453905,-5.8799296)"
       gradientUnits="userSpaceOnUse"
       y2="124.17822"
       x2="147.13048"
       y1="92.15451"
       x1="65.29213"
       id="linearGradient1653"
       xlink:href="#linearGradient1651"
       inkscape:collect="always" />
  </defs>
  <sodipodi:namedview
     inkscape:window-maximized="1"
     inkscape:window-y="-8"
     inkscape:window-x="1912"
     inkscape:window-height="1027"
     inkscape:window-width="1920"
     showgrid="false"
     inkscape:document-rotation="0"
     inkscape:current-layer="layer1"
     inkscape:document-units="mm"
     inkscape:cy="507.29788"
     inkscape:cx="599.69914"
     inkscape:zoom="0.49497475"
     inkscape:pageshadow="2"
     inkscape:pageopacity="0.0"
     borderopacity="1.0"
     bordercolor="#666666"
     pagecolor="#ffffff"
     id="base" />
  <metadata
     id="metadata940">
    <rdf:RDF>
      <cc:Work
         rdf:about="">
        <dc:format>image/svg+xml</dc:format>
        <dc:type
           rdf:resource="http://purl.org/dc/dcmitype/StillImage" />
        <dc:title></dc:title>
      </cc:Work>
    </rdf:RDF>
  </metadata>
  <g
     id="layer1"
     inkscape:groupmode="layer"
     inkscape:label="Layer 1">
    <g
       id="g926"
       transform="matrix(0.93438491,0,0,0.92562447,173.16267,19.942933)"
       style="stroke-width:1.30987">
      <text
         id="text895"
         y="20.110151"
         x="-128.44757"
         style="font-style:normal;font-variant:normal;font-weight:bold;font-stretch:normal;font-size:17.9247px;line-height:1.25;font-family:Bahnschrift;-inkscape-font-specification:'Bahnschrift Bold';stroke-width:0.346568"
         xml:space="preserve"><tspan
           id="tspan893"
           style="font-style:normal;font-variant:normal;font-weight:bold;font-stretch:normal;font-family:Bahnschrift;-inkscape-font-specification:'Bahnschrift Bold';stroke-width:0.346568"
           y="20.110151"
           x="-128.44757"
           sodipodi:role="line">me-shi</tspan></text>
      <g
         transform="matrix(0.85724333,0,0,0.85724333,-15.353081,0.5716504)"
         id="g913">
        <path
           style="fill:none;stroke:#000000;stroke-width:2.61973;stroke-linecap:butt;stroke-linejoin:miter;stroke-miterlimit:4;stroke-dasharray:none;stroke-opacity:1"
           d="m -165.54976,21.760208 8.62351,5.223076 18.97172,-5.223076"
           id="path901"
           sodipodi:nodetypes="ccc" />
        <path
           id="path903"
           d="m -165.54976,16.537132 8.62351,5.223076 18.97172,-5.223076"
           style="fill:none;stroke:#000000;stroke-width:2.61973;stroke-linecap:butt;stroke-linejoin:miter;stroke-miterlimit:4;stroke-dasharray:none;stroke-opacity:1"
           sodipodi:nodetypes="ccc" />
        <path
           style="fill:none;stroke:#000000;stroke-width:2.61973;stroke-linecap:butt;stroke-linejoin:miter;stroke-miterlimit:4;stroke-dasharray:none;stroke-opacity:1"
           d="m -165.54976,11.314057 8.62351,5.223076 18.97172,-5.223076"
           id="path905"
           sodipodi:nodetypes="ccc" />
        <path
           id="path907"
           d="m -138.19542,11.314058 -8.72756,-4.5266654 -18.86767,4.5266654"
           style="fill:none;stroke:#000000;stroke-width:1.9648;stroke-linecap:butt;stroke-linejoin:miter;stroke-miterlimit:4;stroke-dasharray:none;stroke-opacity:1"
           sodipodi:nodetypes="ccc" />
      </g>
    </g>
    <rect
       style="fill:#f9f9f9;stroke:#b3b3b3;stroke-width:0.690171;stroke-linecap:round;stroke-linejoin:miter;stroke-miterlimit:4;stroke-dasharray:none;stroke-opacity:1"
       id="rect3888"
       width="167.12265"
       height="105.51231"
       x="23.02796"
       y="178.64125" />
    <text
       xml:space="preserve"
       style="font-size:8.67669px;line-height:1.25;font-family:'BIZ UDGothic';-inkscape-font-specification:'BIZ UDGothic';stroke-width:0.542295"
       x="60.820545"
       y="234.4817"
       id="text3892"><tspan
         sodipodi:role="line"
         id="tspan3890"
         x="60.820545"
         y="234.4817"
         style="stroke-width:0.542295">dynamic me-shi preview</tspan></text>
    <path
       style="fill:url(#linearGradient1653);fill-opacity:1;fill-rule:nonzero;stroke-width:0.356;stroke-miterlimit:4;stroke-dasharray:none"
       id="rect2"
       d="m 54.08302,57.809058 v 3.558191 3.558189 3.558189 3.558189 3.558191 3.558189 3.558189 h 24.907327 v -3.558189 -3.558189 -3.558191 -3.558189 -3.558189 -3.558189 -3.558191 z m 32.023707,0 v 3.558191 3.558189 h -3.55819 v 3.558189 3.558189 h 3.55819 v 3.558191 3.558189 h 3.558189 v 3.558189 h 3.55819 v -3.558189 -3.558189 -3.558191 h -3.55819 v -3.558189 h 3.55819 v 3.558189 h 3.558188 v -3.558189 -3.558189 h -3.558188 v -3.558189 h 3.558188 v -3.558191 z m 10.674567,3.558191 v 3.558189 h 3.558186 v 3.558189 3.558189 h -3.558186 v 3.558191 3.558189 3.558189 h 3.558186 v -3.558189 h 3.55819 v -3.558189 -3.558191 h 3.55819 v 3.558191 h 3.55819 v -3.558191 h 3.55819 v 3.558191 3.558189 h 3.55819 v 3.558189 h 3.55819 v -3.558189 -3.558189 h -3.55819 v -3.558191 -3.558189 h -14.23276 v -3.558189 h 10.67457 v -3.558189 h -7.11638 v -3.558191 h -7.11638 v 3.558191 z m 24.907326,14.232758 h 3.55818 v 3.558189 3.558189 h 3.5582 v -3.558189 -3.558189 -3.558191 -3.558189 -3.558189 -3.558189 h -3.5582 v 3.558189 3.558189 h -3.55818 v 3.558189 z m 3.55818,-14.232758 v -3.558191 h -7.11637 v 3.558191 z m 0,21.349136 h -3.55818 v 3.558192 h -3.55819 v 3.55819 h 7.11637 v 3.55818 h 3.5582 v -3.55818 -3.55819 h -3.5582 z m 3.5582,10.674562 v 3.558204 h 7.11637 v -3.558204 -3.55818 h -3.55818 v 3.55818 z m -10.67457,-3.55818 h -3.55819 v -3.55819 h -10.67457 v 3.55819 h 7.11638 v 3.55818 h -3.55819 v 3.558204 3.558189 h -3.55819 v 3.55818 h 10.67457 v -3.55818 -3.558189 h 3.55819 v -3.558204 z m -3.55819,14.232753 v 3.5582 3.55818 h -3.55819 v 3.55819 h 7.11638 v -3.55819 -3.55818 h 3.55819 v -3.5582 z m 7.11638,0 h 10.67457 v 3.5582 h 3.55818 v -3.5582 -3.55818 h -14.23275 z m 14.23275,3.5582 v 3.55818 h 3.5582 v -3.55818 z m 3.5582,0 h 3.55819 v -3.5582 h -3.55819 z m 3.55819,-3.5582 h 3.55818 v -3.55818 h -3.55818 z m 3.55818,0 v 3.5582 h 3.5582 v -3.5582 z m 3.5582,0 h 3.55819 v -3.55818 h -3.55819 z m 3.55819,-3.55818 h 3.55818 v -3.558189 h -3.55818 z m 0,3.55818 v 3.5582 3.55818 3.55819 h -3.55819 v 3.5582 h 7.11637 v -3.5582 -3.55819 -3.55818 -3.5582 z m -3.55819,14.23277 h -3.5582 v -3.5582 h 3.5582 v -3.55819 h -3.5582 v -3.55818 h -3.55818 v 3.55818 h -3.55819 v 3.55819 h 3.55819 v 3.5582 h -3.55819 v -3.5582 h -7.11638 v 3.5582 3.55818 h 7.11638 v 3.55819 3.5582 h -3.5582 v -3.5582 H 128.805 v 3.5582 h -3.5582 v 3.55818 3.55819 h -3.55818 v 3.5582 h -3.55819 v -3.5582 -3.55819 -3.55818 h -3.55819 v -3.5582 h 3.55819 v 3.5582 h 3.55819 v -3.5582 -3.55819 -3.55818 h 3.55818 v 3.55818 3.55819 h 3.5582 v -3.55819 -3.55818 -3.5582 h -10.67457 v 3.5582 3.55818 h -3.55819 v -3.55818 h -7.11638 v 3.55818 h 3.55819 v 3.55819 3.5582 h -3.55819 v -3.5582 h -3.55819 v 3.5582 h -7.116376 v 3.55818 h 3.558186 v 3.55819 h 3.55819 v -3.55819 h 3.55819 v 3.55819 h 3.55819 v -3.55819 h 3.55819 v 3.55819 h -3.55819 v 3.5582 h 3.55819 v 3.55818 h -3.55819 v -3.55818 h -3.55819 v 3.55818 h -3.55819 v 3.55819 h 32.0237 v 3.55819 3.55819 h 3.5582 v 3.55818 h -3.5582 v 3.5582 h 7.11639 v -3.5582 h 7.11638 v -3.55818 h 3.55819 v 3.55818 h 3.55818 v -3.55818 -3.55819 h -3.55818 v -3.55819 h 3.55818 v -3.55819 h -3.55818 v -3.55818 h -3.55819 v 3.55818 3.55819 h -3.5582 v 3.55819 3.55819 h -3.55818 v -3.55819 h -3.55819 v -3.55819 h 3.55819 v -3.55819 h 3.55818 v -3.55818 h -3.55818 v -3.5582 h 3.55818 v 3.5582 h 3.5582 v -3.5582 -3.55819 h 7.11637 v -3.55818 -3.5582 -3.55819 h -3.55818 v 3.55819 3.5582 h -3.55819 v -3.5582 h -3.5582 v 3.5582 h -3.55818 v -3.5582 h 3.55818 v -3.55819 h 3.5582 z m -14.23277,39.14007 v -3.55818 h -3.55818 v 3.55818 z m -3.55818,-3.55818 v -3.55819 h -7.11639 v 3.55819 h -3.55818 v -3.55819 h -3.55819 v 3.55819 3.55818 h 7.11637 v 3.5582 h 3.5582 v -3.5582 -3.55818 z m -14.23276,3.55818 h -3.55819 v -3.55818 -3.55819 h -10.67457 v 3.55819 h 7.11638 v 3.55818 h -10.67457 v 3.5582 h 17.79095 z m -17.79095,0 v -3.55818 h -7.116374 v -3.55819 h 10.674564 v -3.55819 h -3.55819 v -3.55819 H 89.664916 v 3.55819 h -3.558189 v -3.55819 h -3.55819 v 3.55819 3.55819 h 7.116379 v 3.55819 3.55818 3.5582 h 7.116378 v -3.5582 z M 86.106727,143.20561 h 3.558189 v -3.55818 h 3.55819 v -3.5582 h -3.55819 v -3.55819 h -7.116379 v 3.55819 3.5582 h 3.55819 z m -3.55819,-10.67457 v -3.55818 h -7.116379 v -3.5582 h -3.558189 v 3.5582 h -3.558191 v -3.5582 h -3.558189 v 3.5582 H 61.1994 v -3.5582 h 3.558189 v -3.55819 h -7.11638 v -3.55818 H 54.08302 v 3.55818 3.55819 3.5582 3.55818 z m -14.232759,-7.11638 h 3.558191 v -3.55819 h 3.558189 v -3.55818 h 7.116379 v -3.5582 -3.55819 h -3.55819 v 3.55819 h -7.116378 v 3.5582 h -3.558191 v 3.55818 z m 0,-7.11637 v -3.5582 H 61.1994 v 3.5582 z m -7.116378,-3.5582 v -3.55819 h -3.558191 v -3.55818 H 54.08302 v 3.55818 3.55819 z m -3.558191,-7.11637 H 61.1994 v -3.5582 h -3.558191 z m 0,-3.5582 v -3.55818 h 7.11638 v -3.558189 -3.558204 -3.55818 h -7.11638 v 3.55818 H 54.08302 v 3.558204 3.558189 3.55818 z m 7.11638,-14.232753 h 3.558189 v 3.55818 3.558204 3.558189 h 3.558191 v 3.55818 h 7.116378 v 3.5582 h 7.11638 v -3.5582 h -3.55819 v -3.55818 h 3.55819 v 3.55818 h 7.116379 v -3.55818 h -3.55819 v -3.558189 -3.558204 h 7.116378 v -3.55818 -3.55819 -3.558192 h -3.558188 v 3.558192 h -3.55819 v 3.55819 h -7.116379 v -3.55819 h -7.116379 v 3.55819 h 3.558189 v 3.55818 h -7.116378 v -3.55818 -3.55819 h -7.11638 z m 32.023705,3.55818 v 3.558204 h -3.558188 v 3.558189 h 3.558188 v 3.55818 3.5582 h 3.558186 v -3.5582 -3.55818 -3.558189 -3.558204 z m 3.558186,0 h 3.55819 v -3.55818 h -3.55819 z m 0,14.232773 v 3.55818 h 3.55819 v -3.55818 z m 3.55819,3.55818 v 3.55819 3.5582 h 3.55819 v -3.5582 -3.55819 z m 0,7.11639 h -3.55819 v -3.5582 h -3.558186 v -3.55819 h -3.558188 v 3.55819 h -7.116379 v 3.5582 h 3.558189 v 3.55818 h -7.116379 v 3.55819 3.5582 h 3.55819 v -3.5582 h 3.558189 v 3.5582 3.55818 h 3.55819 v -3.55818 -3.5582 -3.55819 -3.55818 h 3.558188 v 3.55818 3.55819 h 3.558186 v -3.55819 h 3.55819 z M 78.990347,107.62372 h -7.116378 v 3.55818 h 7.116378 z m -7.116378,0 v -3.5582 h -3.558191 v 3.5582 z m -3.558191,0 h -3.558189 v 3.55818 h 3.558189 z m 7.11638,14.23275 v 3.55819 h 3.558189 v -3.55819 z m 32.023702,17.79096 v -3.5582 h -3.55819 v 3.5582 z m -7.11638,-3.5582 h -3.558186 v 3.5582 h 3.558186 z m 21.34914,-28.46551 v 3.55818 h 7.11638 v -3.55818 z M 103.89767,86.274577 v -3.558192 h -3.55819 v 3.558192 z m 0,-3.558192 h 3.55819 v -3.558189 h -3.55819 z m 10.67457,-3.558189 h -3.55819 v 3.558189 h 3.55819 z m -28.465513,0 h -3.55819 v 3.558189 h 3.55819 z M 132.36319,57.809058 v 3.558191 3.558189 3.558189 3.558189 3.558191 3.558189 3.558189 h 24.90732 v -3.558189 -3.558189 -3.558191 -3.558189 -3.558189 -3.558189 -3.558191 z m -74.721981,3.558191 h 17.790949 v 3.558189 3.558189 3.558189 3.558191 3.558189 H 57.641209 v -3.558189 -3.558191 -3.558189 -3.558189 z m 78.280161,0 h 17.79096 v 3.558189 3.558189 3.558189 3.558191 3.558189 H 135.92137 V 75.600007 72.041816 68.483627 64.925438 Z M 61.1994,64.925438 v 3.558189 3.558189 3.558191 h 10.674569 v -3.558191 -3.558189 -3.558189 z m 78.28017,0 v 3.558189 3.558189 3.558191 h 10.67457 v -3.558191 -3.558189 -3.558189 z m 3.55819,21.349139 v 3.55819 h 7.11638 v -3.55819 z m 7.11638,3.55819 v 3.55818 h 3.55819 v -3.55818 z m 0,3.55818 h -7.11638 v 3.558204 h 7.11638 z m -7.11638,0 v -3.55818 h -3.55819 v 3.55818 z m -67.605602,3.558204 h 3.558189 v 3.558189 H 75.432158 Z M 128.805,132.53104 h 10.67457 v 3.55819 3.5582 3.55818 H 128.805 v -3.55818 -3.5582 z m -74.72198,3.55819 v 3.5582 3.55818 3.55819 3.55819 3.55819 3.55818 3.5582 h 24.907327 v -3.5582 -3.55818 -3.55819 -3.55819 -3.55819 -3.55818 -3.5582 z m 78.28017,0 v 3.5582 h 3.55818 v -3.5582 z m -74.721981,3.5582 h 17.790949 v 3.55818 3.55819 3.55819 3.55819 3.55818 H 57.641209 v -3.55818 -3.55819 -3.55819 -3.55819 z m 3.558191,3.55818 v 3.55819 3.55819 3.55819 h 10.674569 v -3.55819 -3.55819 -3.55819 z" />
  </g>
</svg>
