<?xml version="1.0" encoding="UTF-8" standalone="no"?>
<svg
   xmlns:dc="http://purl.org/dc/elements/1.1/"
   xmlns:cc="http://creativecommons.org/ns#"
   xmlns:rdf="http://www.w3.org/1999/02/22-rdf-syntax-ns#"
   xmlns:svg="http://www.w3.org/2000/svg"
   xmlns="http://www.w3.org/2000/svg"
   xmlns:sodipodi="http://sodipodi.sourceforge.net/DTD/sodipodi-0.dtd"
   xmlns:inkscape="http://www.inkscape.org/namespaces/inkscape"
   sodipodi:docname="dynamic.svg"
   inkscape:version="1.0 (4035a4fb49, 2020-05-01)"
   id="svg926"
   version="1.1"
   viewBox="0 0 317.49999 166.6875"
   height="630"
   width="1200">
  <defs
     id="defs920" />
  <sodipodi:namedview
     inkscape:window-maximized="1"
     inkscape:window-y="-8"
     inkscape:window-x="1912"
     inkscape:window-height="1027"
     inkscape:window-width="1920"
     inkscape:snap-page="true"
     units="px"
     showgrid="false"
     inkscape:document-rotation="0"
     inkscape:current-layer="layer1"
     inkscape:document-units="mm"
     inkscape:cy="413.27366"
     inkscape:cx="594.49929"
     inkscape:zoom="0.98994949"
     inkscape:pageshadow="2"
     inkscape:pageopacity="0.0"
     borderopacity="1.0"
     bordercolor="#666666"
     pagecolor="#ffffff"
     id="base" />
  <metadata
     id="metadata923">
    <rdf:RDF>
      <cc:Work
         rdf:about="">
        <dc:format>image/svg+xml</dc:format>
        <dc:type
           rdf:resource="http://purl.org/dc/dcmitype/StillImage" />
        <dc:title></dc:title>
      </cc:Work>
    </rdf:RDF>
  </metadata>
  <g
     id="layer1"
     inkscape:groupmode="layer"
     inkscape:label="Layer 1">
    <path
       transform="scale(0.26458333)"
       d="M 888.76562 58.345703 L 670.61133 630 L 831.40625 630 L 1200 497.1543 L 1200 358.31641 L 888.76562 58.345703 z M 920.36719 199.91602 L 1156.7266 427.71484 L 781.88281 562.81055 L 920.36719 199.91602 z "
       style="color:#000000;font-style:normal;font-variant:normal;font-weight:normal;font-stretch:normal;font-size:medium;line-height:normal;font-family:sans-serif;font-variant-ligatures:normal;font-variant-position:normal;font-variant-caps:normal;font-variant-numeric:normal;font-variant-alternates:normal;font-variant-east-asian:normal;font-feature-settings:normal;font-variation-settings:normal;text-indent:0;text-align:start;text-decoration:none;text-decoration-line:none;text-decoration-style:solid;text-decoration-color:#000000;letter-spacing:normal;word-spacing:normal;text-transform:none;writing-mode:lr-tb;direction:ltr;text-orientation:mixed;dominant-baseline:auto;baseline-shift:baseline;text-anchor:start;white-space:normal;shape-padding:0;shape-margin:0;inline-size:0;clip-rule:nonzero;display:inline;overflow:visible;visibility:visible;opacity:1;isolation:auto;mix-blend-mode:normal;color-interpolation:sRGB;color-interpolation-filters:linearRGB;solid-color:#000000;solid-opacity:1;vector-effect:none;fill:#c4c4c4;fill-opacity:1;fill-rule:nonzero;stroke:none;stroke-width:80.0001;stroke-linecap:round;stroke-linejoin:miter;stroke-miterlimit:4;stroke-dasharray:none;stroke-dashoffset:0;stroke-opacity:1;color-rendering:auto;image-rendering:auto;shape-rendering:auto;text-rendering:auto;enable-background:accumulate;stop-color:#000000;stop-opacity:1"
       id="path1650" />
    <g
       id="g887"
       transform="matrix(1.2240671,0,0,1.2240671,258.12589,147.2264)">
      <g
         id="g867"
         stroke-width="0.11583">
        <path
           id="path855"
           d="m 15.974,4.5419 q 0,-0.26494 -0.12932,-0.4076 -0.12638,-0.14557 -0.3615,-0.14557 -0.23218,0 -0.35856,0.13975 -0.12344,0.13684 -0.12344,0.39013 L 14.85129,3.81986 Q 14.9953,3.53163 15.22455,3.37732 15.45673,3.2201 15.73888,3.2201 q 0.32917,0 0.56136,0.15431 0.23512,0.15431 0.35562,0.45128 Q 16.7793,4.12266 16.7793,4.539 V 6.2859 H 15.974 Z M 12.4178,3.2638 h 0.8053 v 3.0221 h -0.8053 z m 1.7781,1.2781 q 0,-0.26494 -0.13226,-0.4076 -0.13226,-0.14557 -0.37326,-0.14557 -0.22337,0 -0.34681,0.12519 -0.1205,0.12228 -0.1205,0.34646 L 13.16135,3.79075 q 0.1352,-0.2795 0.33799,-0.42507 0.20279,-0.14557 0.47612,-0.14557 0.32329,0 0.55254,0.15431 0.23218,0.15431 0.35269,0.45128 0.1205,0.29697 0.1205,0.71331 v 1.7469 h -0.8053 z" />
        <path
           id="path857"
           d="m 18.886,6.3296 q -0.44086,0 -0.75533,-0.15722 Q 17.81913,6.01225 17.65455,5.70946 17.48996,5.40376 17.48996,4.97577 V 4.63513 q 0,-0.44836 0.15577,-0.76571 0.15871,-0.31735 0.45849,-0.4833 0.30272,-0.16595 0.72888,-0.16595 0.39971,0 0.6848,0.19798 0.28509,0.19798 0.43204,0.57647 0.14989,0.37558 0.14989,0.90837 v 0.19798 h -2.0867 V 4.56235 h 1.352 l -0.0088,-0.069875 q -0.03235,-0.26203 -0.16754,-0.40469 -0.13226,-0.14266 -0.35562,-0.14266 -0.29096,0 -0.45261,0.17178 -0.15871,0.17178 -0.15871,0.48621 v 0.38431 q 0,0.30861 0.1734,0.47748 0.17634,0.16886 0.49082,0.16886 0.16165,0 0.32036,-0.055318 0.15871,-0.058229 0.28803,-0.16304 l 0.52609,0.46292 q -0.23806,0.21545 -0.53491,0.33482 -0.29684,0.11646 -0.59956,0.11646 z" />
        <path
           id="path859"
           d="M 22.904,4.3847 V 5.15332 H 20.8114 V 4.3847 Z" />
        <path
           id="path861"
           d="m 24.87,6.3296 q -0.27333,0 -0.53197,-0.046583 -0.25864,-0.049495 -0.48494,-0.14266 -0.22631,-0.093166 -0.39971,-0.22418 l 0.4967,-0.61432 q 0.22043,0.13975 0.46143,0.21545 0.241,0.075698 0.45849,0.075698 0.28215,0 0.43792,-0.061141 0.15577,-0.064052 0.15577,-0.17469 0,-0.1019 -0.0676,-0.15431 Q 25.32849,5.150458 25.22269,5.130078 25.11688,5.106786 24.92585,5.089318 24.87295,5.083498 24.81711,5.077672 24.76421,5.071852 24.70837,5.066026 24.69661,5.063106 24.68192,5.063106 24.67016,5.060186 24.65841,5.060186 24.31748,5.016522 24.11175,4.952466 23.90602,4.88841 23.762,4.707906 q -0.14107,-0.18342 -0.14107,-0.52988 0,-0.30279 0.14695,-0.51824 0.14695,-0.21545 0.42616,-0.32608 0.27921,-0.11355 0.67598,-0.11355 0.23218,0 0.46143,0.046583 0.23218,0.046584 0.4438,0.13393 0.21161,0.087343 0.39089,0.20962 l -0.47906,0.57938 Q 25.48723,4.079039 25.26974,4.017899 25.05225,3.956758 24.8524,3.956758 q -0.24394,0 -0.37914,0.055318 -0.1352,0.055318 -0.1352,0.15431 0,0.075698 0.07054,0.11937 0.07348,0.04076 0.17928,0.061141 0.10874,0.017468 0.31448,0.04076 0.02645,0.00292 0.0529,0.00582 0.02645,0.00292 0.0529,0.00582 0.01175,0.00292 0.02645,0.00292 0.0147,0 0.02645,0.00292 0.35562,0.04076 0.57899,0.10481 0.22337,0.064052 0.37914,0.25621 0.15871,0.19216 0.15871,0.56482 0,0.31444 -0.15283,0.53862 -0.15283,0.22418 -0.44673,0.34355 -0.2939,0.11646 -0.70831,0.11646 z" />
        <path
           id="path863"
           d="m 26.831,2.0526 h 0.8053 V 6.2859 H 26.831 Z m 1.7634,2.4019 q 0,-0.22127 -0.12932,-0.34355 -0.12638,-0.12228 -0.3615,-0.12228 -0.22337,0 -0.34681,0.12519 -0.1205,0.12228 -0.1205,0.34646 L 27.57455,3.79069 q 0.13813,-0.28532 0.32917,-0.42798 0.19398,-0.14266 0.48494,-0.14266 0.482,0 0.74652,0.32317 0.26451,0.32026 0.26451,0.90837 v 1.8342 h -0.8053 z" />
        <path
           id="path865"
           d="m 30.149,2.0526 h 0.8053 V 2.85034 H 30.149 Z m 0,1.2112 h 0.8053 V 6.2859 H 30.149 Z" />
      </g>
      <path
         id="path869"
         style="font-variant-ligatures:normal;font-variant-position:normal;font-variant-caps:normal;font-variant-numeric:normal;font-variant-alternates:normal;font-variant-east-asian:normal;font-feature-settings:normal;font-variation-settings:normal;text-indent:0;text-decoration:none;text-decoration-line:none;text-decoration-style:solid;text-decoration-color:#000000;text-transform:none;text-orientation:mixed;white-space:normal;shape-padding:0;shape-margin:0;inline-size:0;isolation:auto;mix-blend-mode:normal"
         stop-color="#000000"
         solid-color="#000000"
         shape-rendering="auto"
         image-rendering="auto"
         dominant-baseline="auto"
         color-rendering="auto"
         color="#000000"
         d="m 29.197,5.3809 -20.912,4.9687 0.32422,1.3574 -0.53906,0.89453 9.8984,5.9414 21.23,-5.7871 -0.46875,-1.707 0.31445,-0.61133 z m -0.27344,2.252 6.3301,3.2559 -16.863,4.5977 -6.3848,-3.8301 z m 9.5234,8.0176 -20.057,5.4688 -8.8594,-5.3223 -1.4609,2.4355 9.8984,5.9434 21.23,-5.7949 z m 0,5.625 -20.057,5.4688 -8.8594,-5.3145 -1.4609,2.4277 9.8984,5.9434 21.23,-5.7871 z"
         transform="matrix(0.26458,0,0,0.26458,-4.715e-4,0)" />
    </g>
    <text
       id="text891"
       y="155.01631"
       x="236.45894"
       style="font-style:normal;font-variant:normal;font-weight:normal;font-stretch:normal;font-size:5.43213px;line-height:1.25;font-family:'Noto Sans JP';-inkscape-font-specification:'Noto Sans JP';fill:#000000;stroke-width:0.408477"
       xml:space="preserve"><tspan
         style="font-style:normal;font-variant:normal;font-weight:normal;font-stretch:normal;font-size:5.43213px;font-family:'Noto Sans JP';-inkscape-font-specification:'Noto Sans JP';fill:#000000;stroke-width:0.408477"
         y="155.01631"
         x="236.45894"
         id="tspan889"
         sodipodi:role="line">made by</tspan></text>
    <text
       xml:space="preserve"
       style="font-style:normal;font-variant:normal;font-weight:normal;font-stretch:normal;font-size:7.40833px;line-height:1.25;font-family:'Noto Sans JP';-inkscape-font-specification:'Noto Sans JP';fill:#000000;stroke-width:0.408477;word-spacing:0px;letter-spacing:-0.52916667px"
       x="26.682154"
       y="30.284168"
       id="text1575"><tspan
         sodipodi:role="line"
         id="tspan1573"
         x="26.682154"
         y="30.284168"
         style="font-style:normal;font-variant:normal;font-weight:normal;font-stretch:normal;font-size:7.40833px;font-family:'Noto Sans JP';-inkscape-font-specification:'Noto Sans JP';fill:#000000;stroke-width:0.408477;">ハックツハッカソン　プレシオ杯</tspan></text>
    <text
       id="text1579"
       y="67.151627"
       x="26.682154"
       style="font-style:normal;font-variant:normal;font-weight:bold;font-stretch:normal;font-size:19.05px;line-height:1.25;font-family:'Noto Sans JP';-inkscape-font-specification:'Noto Sans JP Bold';letter-spacing:-0.529167px;word-spacing:0px;fill:#000000;stroke-width:0.408477"
       xml:space="preserve"><tspan
         style="font-style:normal;font-variant:normal;font-weight:bold;font-stretch:normal;font-size:19.05px;font-family:'Noto Sans JP';-inkscape-font-specification:'Noto Sans JP Bold';letter-spacing:0px;fill:#000000;stroke-width:0.408477"
         y="67.151627"
         x="26.682154"
         id="tspan1577"
         sodipodi:role="line">kubesmas tree</tspan></text>
    <text
       id="text1583"
       y="95.058365"
       x="26.682154"
       style="font-style:normal;font-variant:normal;font-weight:normal;font-stretch:normal;font-size:6.35px;line-height:1.25;font-family:'Noto Sans JP';-inkscape-font-specification:'Noto Sans JP';word-spacing:0px;fill:#4d4d4d;stroke-width:0.408477"
       xml:space="preserve"><tspan
         style="font-style:normal;font-variant:normal;font-weight:normal;font-stretch:normal;font-size:6.35px;font-family:'Noto Sans JP';-inkscape-font-specification:'Noto Sans JP';fill:#4d4d4d;stroke-width:0.408477"
         y="95.058365"
         x="26.682154"
         id="tspan1581"
         sodipodi:role="line">今回使った技術</tspan></text>
    <text
       xml:space="preserve"
       style="font-style:normal;font-variant:normal;font-weight:normal;font-stretch:normal;font-size:6.35px;line-height:1.25;font-family:'Noto Sans JP';-inkscape-font-specification:'Noto Sans JP';letter-spacing:-0.529167px;word-spacing:0px;fill:#4d4d4d;stroke-width:0.408477"
       x="77.196091"
       y="85.608963"
       id="text1587"><tspan
         sodipodi:role="line"
         id="tspan1585"
         x="77.196091"
         y="85.608963"
         style="font-style:normal;font-variant:normal;font-weight:normal;font-stretch:normal;font-size:6.35px;font-family:'Noto Sans JP';-inkscape-font-specification:'Noto Sans JP';fill:#4d4d4d;stroke-width:0.408477" /></text>
    <text
       xml:space="preserve"
       style="font-style:normal;font-variant:normal;font-weight:normal;font-stretch:normal;font-size:8.46667px;line-height:1.25;font-family:'Noto Sans JP';-inkscape-font-specification:'Noto Sans JP';word-spacing:0px;fill:#000000;stroke-width:0.408477"
       x="92.430458"
       y="95.058365"
       id="text1591"><tspan
         sodipodi:role="line"
         id="tspan1589"
         x="92.430458"
         y="95.058365"
         style="font-style:normal;font-variant:normal;font-weight:normal;font-stretch:normal;font-size:8.46667px;font-family:'Noto Sans JP';-inkscape-font-specification:'Noto Sans JP';fill:#000000;stroke-width:0.408477">Kubernetes, Docker, Azure, WebSocket</tspan></text>
    <text
       xml:space="preserve"
       style="font-style:normal;font-variant:normal;font-weight:normal;font-stretch:normal;font-size:6.35px;line-height:1.25;font-family:'Noto Sans JP';-inkscape-font-specification:'Noto Sans JP';word-spacing:0px;fill:#4d4d4d;stroke-width:0.408477"
       x="26.682154"
       y="108.95638"
       id="text1595"><tspan
         sodipodi:role="line"
         id="tspan1593"
         x="26.682154"
         y="108.95638"
         style="font-style:normal;font-variant:normal;font-weight:normal;font-stretch:normal;font-size:6.35px;font-family:'Noto Sans JP';-inkscape-font-specification:'Noto Sans JP';fill:#4d4d4d;stroke-width:0.408477">いつも使ってる技術</tspan></text>
    <text
       id="text1599"
       y="108.95638"
       x="92.430458"
       style="font-style:normal;font-variant:normal;font-weight:normal;font-stretch:normal;font-size:8.46667px;line-height:1.25;font-family:'Noto Sans JP';-inkscape-font-specification:'Noto Sans JP';word-spacing:0px;fill:#000000;stroke-width:0.408477"
       xml:space="preserve"><tspan
         style="font-style:normal;font-variant:normal;font-weight:normal;font-stretch:normal;font-size:8.46667px;font-family:'Noto Sans JP';-inkscape-font-specification:'Noto Sans JP';fill:#000000;stroke-width:0.408477"
         y="108.95638"
         x="92.430458"
         id="tspan1597"
         sodipodi:role="line">Kubernetes, Docker, Golang, TypeScript</tspan></text>
    <text
       id="text1611"
       y="135.03674"
       x="26.682154"
       style="font-style:normal;font-variant:normal;font-weight:normal;font-stretch:normal;font-size:6.35px;line-height:1.25;font-family:'Noto Sans JP';-inkscape-font-specification:'Noto Sans JP';word-spacing:0px;fill:#4d4d4d;stroke-width:0.408477"
       xml:space="preserve"><tspan
         style="font-style:normal;font-variant:normal;font-weight:normal;font-stretch:normal;font-size:6.35px;font-family:'Noto Sans JP';-inkscape-font-specification:'Noto Sans JP';fill:#4d4d4d;stroke-width:0.408477"
         y="135.03674"
         x="26.682154"
         id="tspan1609"
         sodipodi:role="line">所属</tspan></text>
    <text
       xml:space="preserve"
       style="font-style:normal;font-variant:normal;font-weight:normal;font-stretch:normal;font-size:8.46667px;line-height:1.25;font-family:'Noto Sans JP';-inkscape-font-specification:'Noto Sans JP';word-spacing:0px;fill:#000000;stroke-width:0.408477"
       x="48.207245"
       y="135.03674"
       id="text1615"><tspan
         sodipodi:role="line"
         id="tspan1613"
         x="48.207245"
         y="135.03674"
         style="font-style:normal;font-variant:normal;font-weight:normal;font-stretch:normal;font-size:8.46667px;font-family:'Noto Sans JP';-inkscape-font-specification:'Noto Sans JP';fill:#000000;stroke-width:0.408477">豊田工業高等専門学校</tspan></text>
    <text
       xml:space="preserve"
       style="font-style:normal;font-variant:normal;font-weight:normal;font-stretch:normal;font-size:6.35px;line-height:1.25;font-family:'Noto Sans JP';-inkscape-font-specification:'Noto Sans JP';word-spacing:0px;fill:#4d4d4d;stroke-width:0.408477"
       x="26.682154"
       y="43.275627"
       id="text1619"><tspan
         sodipodi:role="line"
         id="tspan1617"
         x="26.682154"
         y="43.275627"
         style="font-style:normal;font-variant:normal;font-weight:normal;font-stretch:normal;font-size:6.35px;font-family:'Noto Sans JP';-inkscape-font-specification:'Noto Sans JP';fill:#4d4d4d;stroke-width:0.408477">閑古鳥</tspan></text>
  </g>
</svg>
