<svg width="24" height="24" version="1.1" viewBox="0 0 6.35 6.35" xmlns="http://www.w3.org/2000/svg"><g transform="translate(-25.972 -43.141)"><g transform="matrix(.56654 0 0 .56654 11.621 20.493)" shape-rendering="auto"><path transform="matrix(.26458 0 0 .26458 15.086 41.637)" d="m65.883 0.82422a2.122 2.122 0 0 0-0.51758 0.056641l-22.352 5.3145a2.122 2.122 0 0 0-1.5742 2.5527l0.14258 0.60352-0.13281 0.22266a2.122 2.122 0 0 0 0.72656 2.9121l0.83203 0.5a2.122 2.122 0 0 0-0.0039 0.0078l-1.5566 2.5996a2.122 2.122 0 0 0 0.72852 2.9082l0.83398 0.5a2.122 2.122 0 0 0-0.0059 0.0098l-1.5566 2.5977a2.122 2.122 0 0 0 0.72852 2.9082l10.584 6.3555a2.122 2.122 0 0 0 1.6504 0.22852l22.693-6.1855a2.122 2.122 0 0 0 1.4883-2.6035l-0.79688-2.9297a2.122 2.122 0 0 0-0.29688-0.64258 2.122 2.122 0 0 0 1.0938-2.4531l-0.79688-2.9238a2.122 2.122 0 0 0-0.29492-0.63867 2.122 2.122 0 0 0 1.0918-2.4512l-0.2793-1.0313-0.04297 0.082031a2.122 2.122 0 0 0-0.875-2.834c-3.3162-1.7973-7.1247-3.6618-10.568-5.4316a2.122 2.122 0 0 0-0.94336-0.23438z" color="#000000" color-rendering="auto" dominant-baseline="auto" fill="#f9f9f9" image-rendering="auto" solid-color="#000000" stop-color="#000000" style="font-feature-settings:normal;font-variant-alternates:normal;font-variant-caps:normal;font-variant-east-asian:normal;font-variant-ligatures:normal;font-variant-numeric:normal;font-variant-position:normal;font-variation-settings:normal;inline-size:0;isolation:auto;mix-blend-mode:normal;shape-margin:0;shape-padding:0;text-decoration-color:#000000;text-decoration-line:none;text-decoration-style:solid;text-indent:0;text-orientation:mixed;text-transform:none;white-space:normal"/><path transform="matrix(.26458 0 0 .26458 15.086 41.637)" d="m65.855 2.9453-22.352 5.3145 0.3418 1.4434-0.57812 0.96289 10.584 6.3496 22.693-6.1855-0.49609-1.8242 0.33398-0.65039zm-0.28711 2.4062 6.7715 3.4844-18.037 4.916-6.832-4.0957zm10.18 8.5703-21.445 5.8477-9.4785-5.6855-1.5566 2.5996 10.584 6.3555 22.693-6.1934zm0 6.0176-21.445 5.8457-9.4785-5.6836-1.5566 2.5977 10.584 6.3555 22.693-6.1855z" color="#000000" color-rendering="auto" dominant-baseline="auto" image-rendering="auto" solid-color="#000000" stop-color="#000000" style="font-feature-settings:normal;font-variant-alternates:normal;font-variant-caps:normal;font-variant-east-asian:normal;font-variant-ligatures:normal;font-variant-numeric:normal;font-variant-position:normal;font-variation-settings:normal;inline-size:0;isolation:auto;mix-blend-mode:normal;shape-margin:0;shape-padding:0;text-decoration-color:#000000;text-decoration-line:none;text-decoration-style:solid;text-indent:0;text-orientation:mixed;text-transform:none;white-space:normal"/></g></g></svg>
