<svg width="24.117" height="24.124" version="1.1" viewBox="0 0 6.3809 6.3828" xmlns="http://www.w3.org/2000/svg"><g transform="translate(.015625 -.23438)"><circle cx="3.1748" cy="3.4248" r="3.1904" fill="#fff"/><path transform="scale(.26458)" d="m12 0.94922a12 12 0 0 0-12 12 12 12 0 0 0 12 12 12 12 0 0 0 0.0039 0v2e-3c0.0321 0 0.06364-0.0037 0.0957-0.0039a12 12 0 0 0 0.64062-0.02148c0.03453-0.0021 0.06904-0.0034 0.10352-0.0059a12 12 0 0 0 0.66211-0.06641c0.06004-0.0076 0.11986-0.01496 0.17969-0.02344a12 12 0 0 0 0.56055-0.09375 12 12 0 0 0 0.07031-0.01367c0.05157-0.01015 0.10292-0.02043 0.1543-0.03125a12 12 0 0 0 0.16211-0.03516c-2.53e-4 -4.33e-4 -0.0017-0.0035-2e-3 -0.0039 3.2306-0.72685 6.0624-2.7666 7.7578-5.7031l-0.86328-0.50195c-1.6099 2.7885-4.3402 4.6756-7.4336 5.2754-1.2812-2.2068-4.8842-8.4928-5.3906-10.355-0.61103-2.2479-1.9785-3.5371-1.9785-3.5371s-1.4856 0.15422-3.8438-0.33789c1.5257-1.4296 3.8672-1.6172 3.8672-1.6172 0 0 1.1378-2.9572 4.6758-2.8105 3.538 0.14664 5.8485 4.225 7.8633 6.0547 1.9525 1.7732 4.4567 3.2707 4.6152 3.3652a12 12 0 0 0 0.099609-1.5352 12 12 0 0 0-12-12zm-8.4355 16.494a0.50079 0.50079 0 0 1 0.015625 0h5.0352a0.50079 0.50079 0 0 1 0.50195 0.50195 0.50079 0.50079 0 0 1-0.50195 0.49414h-5.0352a0.50079 0.50079 0 0 1-0.50195-0.49414 0.50079 0.50079 0 0 1 0.48633-0.50195zm0.99023 1.6973a0.50079 0.50079 0 0 1 0.015625 0h4.9219a0.50079 0.50079 0 0 1 0.50195 0.50195 0.50079 0.50079 0 0 1-0.50195 0.50195h-4.9219a0.50079 0.50079 0 0 1-0.50195-0.50195 0.50079 0.50079 0 0 1 0.48633-0.50195zm1.9707 1.7051a0.50079 0.50079 0 0 1 0.015625 0h3.8887a0.50079 0.50079 0 0 1 0.49609 0.50195 0.50079 0.50079 0 0 1-0.49609 0.49609h-3.8887a0.50079 0.50079 0 0 1-0.50195-0.49609 0.50079 0.50079 0 0 1 0.48633-0.50195z" fill="#999"/><g fill="none" shape-rendering="auto"><path d="m3.175 0.25089c-1.7535 0-3.175 1.4215-3.175 3.175 5.5228e-8 1.7535 1.4215 3.175 3.175 3.175 0.23435-5.09e-5 0.46797-0.026048 0.6966-0.077515-0.12917-0.22028-1.4157-2.4213-1.5694-2.9869-0.16167-0.59476-0.52348-0.93586-0.52348-0.93586s-0.39305 0.040804-1.017-0.0894c0.40369-0.37825 1.0232-0.42788 1.0232-0.42788 0 0 0.30104-0.78242 1.2371-0.74362 0.9361 0.038799 1.5474 1.1179 2.0805 1.602 0.51661 0.46915 1.1792 0.86538 1.2211 0.89038 0.017463-0.13469 0.026266-0.27036 0.026355-0.40618 0-1.7535-1.4215-3.175-3.175-3.175z" color="#000000" color-rendering="auto" dominant-baseline="auto" image-rendering="auto" solid-color="#000000" stop-color="#000000" style="font-feature-settings:normal;font-variant-alternates:normal;font-variant-caps:normal;font-variant-east-asian:normal;font-variant-ligatures:normal;font-variant-numeric:normal;font-variant-position:normal;font-variation-settings:normal;inline-size:0;isolation:auto;mix-blend-mode:normal;shape-margin:0;shape-padding:0;text-decoration-color:#000000;text-decoration-line:none;text-decoration-style:solid;text-indent:0;text-orientation:mixed;text-transform:none;white-space:normal"/><path d="m3.1758 0.23438c-1.7622 0-3.1914 1.4293-3.1914 3.1914 6e-8 1.7622 1.4293 3.1914 3.1914 3.1914 0.23553-5.12e-5 0.46944-0.026398 0.69922-0.078125l0.021484-0.00586-0.011719-0.017578c-0.064546-0.11007-0.41853-0.71502-0.77539-1.3633-0.17843-0.32413-0.35591-0.66022-0.5-0.94922s-0.25337-0.53143-0.29102-0.66992c-0.16285-0.5991-0.5293-0.94336-0.5293-0.94336l-0.00391-0.00586h-0.00781s-0.3931 0.021505-0.95117-0.082031c0.39681-0.32279 0.96094-0.40234 0.96094-0.40234l0.00977-0.00195 0.00391-0.00781s0.073801-0.19248 0.26367-0.38086c0.18987-0.18837 0.4935-0.37273 0.95703-0.35352 0.46206 0.019151 0.84441 0.29497 1.1797 0.62891s0.62196 0.72476 0.89062 0.96875c0.51833 0.47072 1.1825 0.86745 1.2246 0.89258l0.019531 0.011719 0.00391-0.023437c0.017551-0.13537 0.025302-0.2717 0.025391-0.4082 0-1.7622-1.4273-3.1914-3.1895-3.1914zm0 0.033203c1.7449 6e-8 3.1582 1.4133 3.1582 3.1582-8.21e-5 0.12599-0.00833 0.25189-0.023437 0.37695-0.062235-0.037197-0.69145-0.41369-1.1973-0.87305-0.26441-0.24012-0.551-0.63048-0.88867-0.9668-0.33767-0.33632-0.72713-0.61902-1.2012-0.63867-0.47257-0.019587-0.78775 0.16819-0.98242 0.36133-0.1918 0.19029-0.26534 0.38098-0.26758 0.38672-0.011533 9.33e-4 -0.61814 0.047977-1.0234 0.42773l-0.021484 0.021484 0.029297 0.00586c0.6188 0.12913 1.0028 0.090737 1.0117 0.089844 0.00404 0.00383 0.358 0.33677 0.51758 0.92383 0.039229 0.14432 0.14856 0.38809 0.29297 0.67773 0.14441 0.28965 0.3234 0.62486 0.50195 0.94922 0.35154 0.6386 0.69124 1.2182 0.76367 1.3418-0.22072 0.048097-0.44398 0.07417-0.66992 0.074219-1.7449 0-3.1602-1.4133-3.1602-3.1582 0-1.7449 1.4153-3.1582 3.1602-3.1582z" color="#000000" color-rendering="auto" dominant-baseline="auto" image-rendering="auto" solid-color="#000000" stop-color="#000000" style="font-feature-settings:normal;font-variant-alternates:normal;font-variant-caps:normal;font-variant-east-asian:normal;font-variant-ligatures:normal;font-variant-numeric:normal;font-variant-position:normal;font-variation-settings:normal;inline-size:0;isolation:auto;mix-blend-mode:normal;shape-margin:0;shape-padding:0;text-decoration-color:#000000;text-decoration-line:none;text-decoration-style:solid;text-indent:0;text-orientation:mixed;text-transform:none;white-space:normal"/></g></g></svg>
